<?xml version="1.0" standalone="no"?>
<!DOCTYPE svg PUBLIC "-//W3C//DTD SVG 20010904//EN"
 "http://www.w3.org/TR/2001/REC-SVG-20010904/DTD/svg10.dtd">
<svg version="1.0" xmlns="http://www.w3.org/2000/svg"
 width="512.000000pt" height="512.000000pt" viewBox="0 0 512.000000 512.000000"
 preserveAspectRatio="xMidYMid meet">

<g transform="translate(0.000000,512.000000) scale(0.100000,-0.100000)"
fill="#000000" stroke="none">
<path d="M1148 4700 c-113 -24 -148 -35 -233 -78 -240 -120 -413 -331 -483
-591 -22 -82 -26 -116 -25 -236 0 -125 3 -153 31 -260 59 -221 187 -444 359
-623 l85 -87 2 -150 c1 -113 6 -159 18 -186 23 -53 86 -119 133 -140 48 -22
151 -25 199 -5 70 29 132 103 150 179 5 22 11 27 24 22 40 -15 185 -27 273
-22 53 3 162 15 242 28 174 27 205 22 270 -45 23 -23 211 -274 417 -556 433
-595 849 -1152 956 -1280 123 -148 216 -209 384 -251 106 -27 210 -22 326 15
309 99 502 433 425 736 -43 169 -103 261 -254 387 -118 99 -805 613 -831 623
-47 17 -97 -30 -80 -75 5 -15 143 -124 354 -282 402 -300 525 -397 577 -458
53 -59 92 -143 111 -236 14 -66 14 -90 4 -161 -49 -339 -405 -532 -713 -387
-114 54 -163 106 -415 439 -291 383 -923 1249 -948 1297 -9 18 -16 55 -16 83
0 129 100 230 227 230 74 0 77 -2 402 -238 145 -106 272 -192 282 -192 26 0
59 35 59 64 0 13 -8 33 -17 44 -10 10 -193 147 -408 303 -214 156 -406 301
-427 323 -37 37 -58 87 -58 136 0 14 9 77 20 140 42 239 37 403 -17 575 -138
437 -567 816 -1033 911 -138 29 -251 30 -372 4z m309 -121 c355 -48 741 -337
915 -684 98 -193 120 -374 78 -631 -43 -261 -28 -327 96 -443 l74 -69 -54 -26
c-65 -32 -150 -119 -178 -183 l-21 -47 -31 40 c-88 113 -170 159 -281 157 -38
0 -113 -9 -165 -19 -115 -23 -389 -26 -457 -6 l-43 13 0 98 c0 54 2 100 6 103
3 3 26 -1 52 -10 31 -10 87 -15 167 -15 99 0 131 3 185 22 108 38 190 89 275
175 211 211 251 496 110 776 -37 73 -103 166 -162 228 -44 46 -82 55 -115 25
-32 -28 -22 -59 45 -137 121 -143 176 -264 184 -407 10 -157 -37 -279 -152
-395 -146 -147 -304 -192 -513 -145 -120 28 -161 13 -197 -72 -12 -28 -15 -77
-15 -216 0 -178 0 -180 -26 -210 -14 -17 -43 -36 -64 -42 -32 -10 -44 -9 -76
7 -21 11 -47 32 -58 47 -20 27 -21 46 -27 385 -7 399 -8 407 -83 590 -60 147
-80 243 -73 351 8 145 67 260 176 341 90 68 147 84 291 84 110 0 134 -3 205
-28 44 -15 112 -45 152 -67 79 -43 107 -48 135 -22 29 26 23 68 -14 96 -54 40
-171 95 -265 124 -74 22 -108 26 -213 27 -107 1 -136 -3 -199 -23 -177 -58
-305 -187 -368 -368 -24 -68 -27 -93 -27 -198 0 -137 12 -189 80 -361 24 -61
50 -140 58 -175 14 -63 26 -259 15 -259 -10 0 -116 135 -164 209 -67 104 -122
226 -152 339 -37 136 -39 339 -5 456 30 103 89 216 152 289 193 225 443 318
747 276z"/>
<path d="M1410 2121 c-85 -28 -151 -93 -174 -172 -20 -65 -20 -83 -1 -145 56
-188 302 -240 430 -91 107 125 69 313 -79 389 -43 22 -136 32 -176 19z m146
-154 c28 -26 37 -42 41 -77 11 -116 -126 -183 -208 -101 -77 78 -23 211 87
211 36 0 51 -6 80 -33z"/>
<path d="M803 1682 c-72 -24 -138 -73 -173 -129 -38 -60 -50 -102 -50 -180 0
-127 71 -237 188 -291 75 -35 183 -37 254 -5 62 28 134 96 166 158 23 43 27
62 27 140 0 75 -4 98 -25 140 -70 142 -242 216 -387 167z m185 -133 c64 -32
102 -95 102 -171 0 -68 -15 -103 -64 -145 -90 -80 -225 -63 -286 34 -35 55
-44 101 -30 155 33 123 163 182 278 127z"/>
</g>
</svg>
